<svg width="100" height="100" viewBox="0 0 100 100" fill="none" xmlns="http://www.w3.org/2000/svg">
<path d="M78.1163 41.0459C77.367 41.0465 76.619 41.0918 75.8753 41.1811C73.8563 34.6068 67.7915 30.1138 60.9144 30.0997C59.2025 30.0979 57.5028 30.3823 55.8851 30.9395C51.8802 22.2795 42.389 17.5731 33.0722 19.6269C23.7541 21.6814 17.1223 29.9413 17.1291 39.482C17.1297 41.1309 17.3352 42.7731 17.7382 44.3707C8.86117 45.726 2.51865 53.682 3.17859 62.638C3.83731 71.5945 11.2765 78.5371 20.2563 78.5768H78.1163C88.4802 78.5768 96.8814 70.175 96.8814 59.8111C96.8814 49.4471 88.4802 41.0459 78.1163 41.0459ZM78.1163 75.449H20.2563C12.5468 75.4826 6.2471 69.3028 6.13211 61.5939C6.01774 53.8851 12.1297 47.5211 19.8373 47.3248C20.3376 47.3107 20.8006 47.0581 21.0832 46.6453C21.367 46.2318 21.4349 45.7089 21.2667 45.2373C18.1627 36.3548 22.7798 26.6275 31.6245 23.4159C40.4685 20.2043 50.2514 24.704 53.5695 33.5089C53.7211 33.9175 54.0355 34.2435 54.438 34.4098C54.841 34.5762 55.2942 34.567 55.6893 34.3847C57.3267 33.6233 59.1095 33.2288 60.9144 33.2269C66.8643 33.238 71.9878 37.4288 73.1762 43.2587C73.3462 44.1065 74.1719 44.6545 75.0184 44.4832C76.038 44.2789 77.0753 44.175 78.1163 44.1737C86.753 44.1737 93.7542 51.1756 93.7542 59.8111C93.7542 68.4478 86.753 75.449 78.1163 75.449Z" fill="black"/>
</svg>
