<svg width="20" height="20" viewBox="0 0 20 20" fill="none" xmlns="http://www.w3.org/2000/svg">
<path d="M15.8059 12.3894C15.3965 11.9631 14.9026 11.7351 14.3792 11.7351C13.86 11.7351 13.3619 11.9589 12.9356 12.3852L11.6017 13.7149C11.4919 13.6558 11.3822 13.6009 11.2767 13.546C11.1247 13.47 10.9812 13.3983 10.8588 13.3223C9.60932 12.5287 8.47383 11.4945 7.38478 10.1564C6.85714 9.4895 6.50256 8.92809 6.24507 8.35824C6.59121 8.04166 6.91201 7.71241 7.22438 7.39582C7.34257 7.27763 7.46076 7.15522 7.57895 7.03702C8.46539 6.15059 8.46539 5.00244 7.57895 4.116L6.42658 2.96363C6.29573 2.83277 6.16065 2.6977 6.03402 2.56262C5.78075 2.30091 5.51482 2.03076 5.24044 1.77749C4.83099 1.37226 4.34134 1.15698 3.82636 1.15698C3.31138 1.15698 2.81329 1.37226 2.39118 1.77749C2.38695 1.78171 2.38695 1.78171 2.38273 1.78593L0.947547 3.23378C0.407241 3.77409 0.0990982 4.43258 0.03156 5.19661C-0.0697473 6.42918 0.293271 7.57733 0.571866 8.32869C1.25569 10.1733 2.2772 11.8829 3.80104 13.7149C5.64989 15.9225 7.87443 17.6658 10.4156 18.8942C11.3864 19.3543 12.6823 19.8988 14.1302 19.9917C14.2188 19.9959 14.3117 20.0001 14.3961 20.0001C15.3712 20.0001 16.1901 19.6498 16.8317 18.9533C16.8359 18.9449 16.8443 18.9406 16.8486 18.9322C17.0681 18.6663 17.3213 18.4257 17.5873 18.1682C17.7688 17.9951 17.9545 17.8136 18.136 17.6236C18.5539 17.1889 18.7734 16.6823 18.7734 16.1631C18.7734 15.6397 18.5497 15.1374 18.1234 14.7153L15.8059 12.3894ZM17.3171 16.8343C17.3129 16.8343 17.3129 16.8385 17.3171 16.8343C17.1525 17.0116 16.9836 17.172 16.8021 17.3493C16.5278 17.611 16.2492 17.8853 15.9875 18.1935C15.5611 18.6494 15.0588 18.8646 14.4003 18.8646C14.337 18.8646 14.2695 18.8646 14.2061 18.8604C12.9525 18.7802 11.7874 18.2906 10.9137 17.8727C8.52449 16.7161 6.42658 15.0741 4.68325 12.993C3.24385 11.2582 2.28143 9.65413 1.64403 7.93191C1.25147 6.88084 1.10795 6.06194 1.17127 5.28947C1.21348 4.7956 1.40343 4.38615 1.75378 4.0358L3.19319 2.59639C3.40003 2.40222 3.61953 2.29669 3.8348 2.29669C4.10074 2.29669 4.31601 2.45709 4.45109 2.59217C4.45531 2.59639 4.45953 2.60061 4.46375 2.60483C4.72124 2.84544 4.96607 3.09448 5.22356 3.36042C5.35441 3.49549 5.48949 3.63057 5.62457 3.76987L6.77694 4.92224C7.22438 5.36968 7.22438 5.78335 6.77694 6.23079C6.65452 6.3532 6.53633 6.47561 6.41392 6.59381C6.05934 6.95682 5.72165 7.29451 5.35441 7.62376C5.34597 7.63221 5.33753 7.63643 5.33331 7.64487C4.97029 8.00789 5.03783 8.36246 5.11381 8.60307C5.11803 8.61573 5.12225 8.62839 5.12647 8.64106C5.42617 9.36709 5.84829 10.0509 6.4899 10.8656L6.49412 10.8698C7.65915 12.305 8.88751 13.4236 10.2425 14.2805C10.4156 14.3902 10.5928 14.4789 10.7617 14.5633C10.9137 14.6393 11.0572 14.7111 11.1796 14.787C11.1965 14.7955 11.2134 14.8081 11.2302 14.8166C11.3738 14.8883 11.5088 14.9221 11.6481 14.9221C11.9985 14.9221 12.218 14.7026 12.2897 14.6308L13.7334 13.1872C13.8769 13.0437 14.1048 12.8706 14.3708 12.8706C14.6325 12.8706 14.8477 13.0353 14.9786 13.1788C14.9828 13.183 14.9828 13.183 14.987 13.1872L17.3129 15.5131C17.7477 15.9436 17.7477 16.3868 17.3171 16.8343Z" fill="#C09F87"/>
<path d="M10.8085 4.7574C11.9144 4.94313 12.919 5.46656 13.7211 6.26857C14.5231 7.07059 15.0423 8.07522 15.2322 9.18116C15.2787 9.45975 15.5193 9.65392 15.7936 9.65392C15.8274 9.65392 15.857 9.6497 15.8907 9.64548C16.2031 9.59483 16.4099 9.29935 16.3593 8.98698C16.1313 7.64888 15.4982 6.42898 14.5315 5.46233C13.5649 4.49569 12.345 3.86252 11.0069 3.63458C10.6945 3.58393 10.4032 3.79076 10.3484 4.09891C10.2935 4.40705 10.4961 4.70675 10.8085 4.7574Z" fill="#C09F87"/>
<path d="M19.9768 8.82242C19.6011 6.61899 18.5627 4.61395 16.9671 3.01836C15.3715 1.42277 13.3665 0.384369 11.1631 0.00868772C10.8549 -0.046187 10.5637 0.16487 10.5088 0.473013C10.4581 0.785377 10.665 1.07664 10.9773 1.13151C12.9444 1.46498 14.7384 2.39785 16.1651 3.82037C17.5919 5.24712 18.5205 7.0411 18.854 9.00815C18.9004 9.28675 19.141 9.48092 19.4154 9.48092C19.4492 9.48092 19.4787 9.4767 19.5125 9.47248C19.8206 9.42604 20.0317 9.13056 19.9768 8.82242Z" fill="#C09F87"/>
</svg>
