<svg width="100" height="100" viewBox="0 0 100 100" fill="none" xmlns="http://www.w3.org/2000/svg">
<path d="M26.4086 86.596L38.4307 100L50 71.3546L61.5694 100L73.5915 86.596L91.5503 87.8912L76.2944 50.1184C80.0034 44.8109 82.0018 38.5081 82.0018 31.8977C82.0018 23.3775 78.6839 15.3672 72.6591 9.34248C66.6343 3.31789 58.6241 0 50.1039 0C41.5837 0 33.5735 3.31789 27.5488 9.34258C21.524 15.3673 18.2061 23.3775 18.2061 31.8978C18.2061 38.4295 20.1581 44.6604 23.7827 49.9279L8.44977 87.8912L26.4086 86.596ZM50.1039 7.06355C56.7374 7.06355 62.9737 9.64673 67.6644 14.3373C72.355 19.0278 74.9382 25.2643 74.9382 31.8978C74.9382 35.3422 74.2402 38.6788 72.9138 41.7483C71.7831 44.365 70.1952 46.7871 68.1902 48.9147C68.0177 49.0979 67.8431 49.2796 67.6643 49.4581C64.4492 52.6735 60.5076 54.8981 56.2097 55.9797C54.7403 56.3496 53.2292 56.5842 51.6914 56.6806C51.165 56.7134 50.636 56.7319 50.1039 56.7319C49.5036 56.7319 48.9067 56.7102 48.3137 56.6682C46.7645 56.5585 45.2437 56.3059 43.7656 55.9186C39.5583 54.8159 35.7004 52.6152 32.5434 49.4581C32.3143 49.2291 32.0917 48.9952 31.8727 48.7589C29.8731 46.601 28.2969 44.1473 27.1871 41.4987C25.9299 38.4982 25.2696 35.2488 25.2696 31.8976C25.2696 25.2642 27.8528 19.0277 32.5434 14.3371C37.2339 9.64673 43.4703 7.06355 50.1039 7.06355ZM80.7576 80.0309L70.6452 79.3016L63.8759 86.8492L54.4462 63.5019C60.5961 62.6699 66.3264 60.0757 71.038 55.9652L80.7576 80.0309ZM29.0167 55.83C33.7069 59.9741 39.4224 62.6057 45.5645 63.4754L36.1241 86.8495L29.3548 79.3019L19.2423 80.0311L29.0167 55.83Z" fill="black"/>
<path d="M48.2777 27.0082V45.4091V46.8004V47.7483H54.0695H55.3412V43.9475V13.8115L38.9798 24.7166L42.8973 30.5943L48.2777 27.0082Z" fill="black"/>
</svg>
