<svg width="100" height="100" viewBox="0 0 100 100" fill="none" xmlns="http://www.w3.org/2000/svg">
<path d="M95.3125 62.5001H87.5V53.1251C87.5015 49.4769 86.7496 45.8676 85.2913 42.5236C83.833 39.1795 81.6997 36.1727 79.0252 33.6915C81.1346 28.0469 86.8859 23.1192 86.9467 23.0665C87.1905 22.8596 87.365 22.5829 87.4466 22.2737C87.5281 21.9645 87.5129 21.6377 87.4029 21.3374C87.2928 21.0372 87.0933 20.7779 86.8313 20.5947C86.5692 20.4114 86.2573 20.3129 85.9375 20.3126C81.4199 20.3126 77.4926 21.1995 74.1992 22.954C74.8207 21.9112 75.5098 20.9103 76.2621 19.9577C77.5965 18.2609 79.0803 16.6871 80.6957 15.2553C80.94 15.0486 81.1149 14.7719 81.1968 14.4625C81.2788 14.1532 81.2637 13.8262 81.1537 13.5256C81.0438 13.2251 80.8442 12.9656 80.582 12.7822C80.3197 12.5988 80.0075 12.5003 79.6875 12.5001C75.4639 12.5001 71.7383 13.2866 68.566 14.8358C68.1279 11.5688 66.6463 5.79499 61.6363 3.29011C61.4194 3.18161 61.1801 3.12512 60.9375 3.12512C60.6949 3.12512 60.4557 3.18161 60.2387 3.29011C55.2344 5.79226 53.75 11.5561 53.3104 14.8253C50.1484 13.28 46.4289 12.5001 42.1875 12.5001C41.8677 12.5003 41.5556 12.5986 41.2934 12.7818C41.0312 12.965 40.8316 13.2243 40.7215 13.5246C40.6114 13.8249 40.5961 14.1517 40.6776 14.461C40.7592 14.7702 40.9337 15.047 41.1775 15.254C42.7934 16.6859 44.2777 18.2598 45.6123 19.9569C46.3629 20.9071 47.0506 21.9054 47.6711 22.9452C44.3842 21.1967 40.4604 20.3126 35.9375 20.3126C35.6177 20.3128 35.3056 20.4111 35.0434 20.5943C34.7812 20.7775 34.5816 21.0368 34.4715 21.3371C34.3614 21.6374 34.3461 21.9642 34.4276 22.2735C34.5092 22.5827 34.6837 22.8595 34.9275 23.0665C34.9891 23.1186 40.74 28.0469 42.8498 33.6915C40.1753 36.1727 38.042 39.1795 36.5837 42.5236C35.1254 45.8676 34.3735 49.4769 34.375 53.1251V53.3044C32.651 53.6319 30.3695 54.3786 29.1512 55.2932C28.978 55.4224 28.796 55.5392 28.6064 55.6428C29.018 51.8798 29.7465 48.0409 30.9875 46.1794C31.1045 46.0087 31.1864 45.8165 31.2285 45.614C31.2706 45.4114 31.2721 45.2025 31.2328 44.9994C31.1935 44.7963 31.1143 44.6029 30.9997 44.4307C30.8852 44.2584 30.7375 44.1106 30.5654 43.9958C30.3932 43.8811 30.2 43.8017 29.9969 43.7622C29.7938 43.7227 29.5849 43.7239 29.3823 43.7658C29.1797 43.8077 28.9875 43.8894 28.8167 44.0062C28.6459 44.123 28.5 44.2725 28.3875 44.4462C26.9709 46.5712 25.9756 50.4657 25.4264 56.0167C24.9018 55.8673 24.4094 55.6223 23.9738 55.294C22.3258 54.0561 18.7305 53.1251 17.2047 53.1251C13.1195 53.1251 9.43359 54.7907 6.82598 57.8151C3.85391 61.2624 2.58438 66.162 3.34277 71.2575L4.31934 77.8155C4.92599 81.9747 6.2836 85.9891 8.32598 89.6628C10.877 94.2331 15.3035 96.8811 19.9861 96.8809C21.1384 96.8799 22.2851 96.7212 23.3943 96.4091C23.4299 96.3992 23.4649 96.388 23.4994 96.3755L26.1131 95.4405C26.404 95.3352 26.7226 95.3352 27.0135 95.4405L29.627 96.3755C29.6615 96.388 29.6967 96.3991 29.732 96.4091C30.8413 96.7211 31.9881 96.8799 33.1404 96.8809C36.565 96.8809 39.8521 95.4628 42.3695 92.9135C47.6663 95.5009 53.4801 96.8553 59.375 96.8751C69.1016 96.8751 78.4992 93.1925 85.8398 86.5057C92.8525 80.1161 96.875 71.936 96.875 64.0626C96.875 63.6482 96.7104 63.2507 96.4174 62.9577C96.1243 62.6647 95.7269 62.5001 95.3125 62.5001ZM54.3408 54.668L60.958 48.2423L67.5885 54.6792L60.9742 61.0938L54.3408 54.668ZM57.9346 62.5001H49.001C48.773 61.862 48.5036 61.2395 48.1943 60.6366L52.0973 56.8464L57.9346 62.5001ZM69.8313 56.8567L75.6445 62.5001H64.0117L69.8313 56.8567ZM63.2002 46.0641L69.8117 39.6434L76.4477 46.0887L69.8324 52.5034L63.2002 46.0641ZM64.2939 29.929C67.1647 30.3424 69.9328 31.289 72.4557 32.7198L69.8117 35.2874L64.2939 29.929ZM67.569 37.4655L60.957 43.8868L54.3486 37.4714L60.9617 31.0493L67.569 37.4655ZM52.1061 35.293L49.442 32.7067C51.9758 31.2738 54.756 30.3292 57.6383 29.9219L52.1061 35.293ZM52.1061 39.6485L58.7148 46.0645L52.0951 52.493L45.4787 46.0848L52.1061 39.6485ZM49.852 54.671L46.4404 57.9844C46.3934 57.928 46.3471 57.8708 46.299 57.8151C44.1935 55.3576 41.2675 53.7479 38.0647 53.2848L43.2357 48.263L49.852 54.671ZM48.8059 77.8155L49.7824 71.2575C50.0662 69.3909 50.0684 67.4923 49.7891 65.6251H87.2223C86.3213 70.7846 83.2705 75.9534 78.6686 80.0292C73.2289 84.8469 66.377 87.5001 59.375 87.5001C55.1169 87.4826 50.9164 86.5158 47.0791 84.67C47.8824 82.4486 48.4609 80.1523 48.8061 77.8155H48.8059ZM81.7299 62.5001L84.375 59.9384V62.5001H81.7299ZM84.375 55.5882L78.6863 61.0973L72.0764 54.6803L78.6914 48.2659L84.375 53.7858V55.5882ZM84.0266 49.0911L80.9356 46.0895L82.6861 44.3919C83.297 45.9068 83.7463 47.4819 84.0266 49.0911ZM81.2459 41.4348L78.6926 43.9108L72.0551 37.4655L75.1258 34.4835C77.6047 36.3741 79.6847 38.7368 81.2459 41.4354V41.4348ZM81.8281 23.7364C80.0336 25.7145 77.8697 28.4966 76.5006 31.6126C75.1038 30.5989 73.6116 29.7236 72.0451 28.9991C72.0646 28.7557 72.0943 28.5124 72.1326 28.269C74.6498 25.8594 77.899 24.3413 81.8281 23.737V23.7364ZM75.5764 15.9239C73.0393 18.721 69.7648 23.1245 69.04 27.8264C67.2014 27.2362 65.3034 26.8497 63.3803 26.6741C63.1971 26.1051 62.9625 25.4614 62.6646 24.7698C64.5832 21.0954 68.3203 17.0448 75.5764 15.9255V15.9239ZM60.9375 6.48581C64.8096 9.00827 65.4836 14.793 65.6006 16.6225C63.7621 17.972 62.1818 19.6416 60.9352 21.5512C60.2183 20.4552 59.3918 19.4348 58.4686 18.5059C57.7864 17.8218 57.053 17.1908 56.2748 16.6182C56.3924 14.7842 57.0684 9.00632 60.9375 6.48581ZM46.3008 15.9278C54.9578 17.2716 58.5629 22.7958 60.0336 26.5796C57.5878 26.6604 55.1651 27.0805 52.835 27.828C52.7861 27.5108 52.726 27.1953 52.6545 26.8813L52.7096 26.8303C52.6811 26.7995 52.651 26.7698 52.6228 26.7393C51.6076 22.4534 48.6406 18.5079 46.3008 15.9278ZM40.0461 23.7362C43.9797 24.3399 47.2262 25.86 49.743 28.2727C49.7809 28.5149 49.8107 28.7575 49.8299 28.9997C48.2634 29.7242 46.7712 30.5995 45.3744 31.6132C44.0051 28.4962 41.8408 25.7143 40.0461 23.7362ZM46.7695 34.468L49.8633 37.4714L43.2332 43.9098L40.6473 41.4051C42.2106 38.7117 44.2913 36.3541 46.7695 34.468ZM39.2031 44.3571L40.99 46.088L37.8391 49.1477C38.1208 47.5066 38.5781 45.9005 39.2031 44.3571ZM42.0703 88.1397C40.0896 91.6895 36.6861 93.7501 33.1121 93.7501C32.2717 93.7495 31.4353 93.6363 30.625 93.4134L28.0664 92.4981C27.0945 92.1512 26.0325 92.1512 25.0605 92.4981L22.5 93.4139C18.0859 94.6231 13.4926 92.5089 11.0547 88.1405C9.19643 84.7962 7.96158 81.1421 7.41035 77.3561L6.43379 70.7983C5.80879 66.6026 6.81504 62.6147 9.19297 59.8565C10.1843 58.7072 11.4152 57.7888 12.7993 57.1657C14.1834 56.5427 15.687 56.2302 17.2047 56.2501C18.1973 56.2501 21.0992 57.0428 22.0979 57.793C23.0057 58.4776 24.0578 58.9461 25.174 59.1628C25.0971 60.4065 25.0541 61.4997 25.0301 62.3368C23.6797 62.0337 22.9988 61.4132 22.9619 61.3784L22.9791 61.3954C22.8342 61.2489 22.6618 61.1326 22.4718 61.053C22.2818 60.9735 22.078 60.9323 21.872 60.9318C21.666 60.9313 21.462 60.9715 21.2716 61.0502C21.0812 61.1289 20.9083 61.2444 20.7627 61.3902C20.6172 61.5359 20.5019 61.709 20.4235 61.8995C20.3451 62.09 20.3051 62.294 20.3058 62.5C20.3066 62.706 20.3481 62.9098 20.4279 63.0997C20.5077 63.2896 20.6243 63.4618 20.7709 63.6065C20.9805 63.8151 22.8992 65.6251 26.5625 65.6251C30.2289 65.6251 32.1484 63.8116 32.3549 63.605C32.5 63.4599 32.6151 63.2876 32.6936 63.098C32.7721 62.9085 32.8125 62.7053 32.8125 62.5001C32.8125 62.2949 32.7721 62.0917 32.6936 61.9021C32.6151 61.7125 32.5 61.5403 32.3549 61.3952C32.2098 61.2501 32.0375 61.135 31.848 61.0565C31.6584 60.9779 31.4552 60.9375 31.25 60.9375C31.0448 60.9375 30.8416 60.9779 30.652 61.0565C30.4625 61.135 30.2902 61.2501 30.1451 61.3952C30.1369 61.4034 29.4695 62.01 28.1529 62.3208C28.1801 61.3768 28.2295 60.2716 28.3078 59.0848C29.2923 58.8424 30.2173 58.4027 31.027 57.7924C32.0256 57.0428 34.9275 56.2495 35.9201 56.2495C37.4378 56.2295 38.9414 56.5419 40.3255 57.1647C41.7096 57.7876 42.9406 58.7059 43.932 59.8551C46.31 62.6132 47.3156 66.6012 46.6912 70.7969L45.7146 77.3548C45.1634 81.1409 43.9286 84.7953 42.0703 88.1397ZM83.7344 84.1956C76.9713 90.3569 68.3203 93.7501 59.375 93.7501C54.1868 93.732 49.0643 92.5884 44.3609 90.3983C44.5123 90.1587 44.6594 89.9141 44.7996 89.6628C45.1841 88.974 45.5441 88.2727 45.8795 87.5589C50.0979 89.5604 54.7058 90.6074 59.375 90.6251C67.141 90.6251 74.7287 87.6928 80.7406 82.3684C86.0238 77.6893 89.4811 71.6577 90.3865 65.6251H93.69C93.1932 72.1393 89.627 78.8282 83.7344 84.1956Z" fill="black"/>
<path d="M79.6875 71.875C80.5504 71.875 81.25 71.1754 81.25 70.3125C81.25 69.4496 80.5504 68.75 79.6875 68.75C78.8246 68.75 78.125 69.4496 78.125 70.3125C78.125 71.1754 78.8246 71.875 79.6875 71.875Z" fill="black"/>
<path d="M71.875 79.6875C72.7379 79.6875 73.4375 78.9879 73.4375 78.125C73.4375 77.2621 72.7379 76.5625 71.875 76.5625C71.0121 76.5625 70.3125 77.2621 70.3125 78.125C70.3125 78.9879 71.0121 79.6875 71.875 79.6875Z" fill="black"/>
<path d="M64.0625 75C64.9254 75 65.625 74.3004 65.625 73.4375C65.625 72.5746 64.9254 71.875 64.0625 71.875C63.1996 71.875 62.5 72.5746 62.5 73.4375C62.5 74.3004 63.1996 75 64.0625 75Z" fill="black"/>
<path d="M54.6875 75C55.5504 75 56.25 74.3004 56.25 73.4375C56.25 72.5746 55.5504 71.875 54.6875 71.875C53.8246 71.875 53.125 72.5746 53.125 73.4375C53.125 74.3004 53.8246 75 54.6875 75Z" fill="black"/>
<path d="M59.375 84.375C60.2379 84.375 60.9375 83.6754 60.9375 82.8125C60.9375 81.9496 60.2379 81.25 59.375 81.25C58.5121 81.25 57.8125 81.9496 57.8125 82.8125C57.8125 83.6754 58.5121 84.375 59.375 84.375Z" fill="black"/>
</svg>
