<svg width="100" height="100" viewBox="0 0 100 100" fill="none" xmlns="http://www.w3.org/2000/svg">
<path d="M92.9674 11.1743L99.9983 4.14321L95.8549 0L88.8236 7.03127C85.5841 4.5448 81.6964 2.95174 77.6198 2.47768L56.3863 0.00839893L0.00177002 56.3933L43.6084 100L99.9932 43.6152L97.5221 22.3783C97.0477 18.3015 95.4542 14.4135 92.9674 11.1743ZM43.6084 91.7132L8.28858 56.3933L58.5255 6.15641L76.9432 8.29814C79.7984 8.63019 82.4212 9.65916 84.6448 11.2104L79.2351 16.6201C78.0435 16.0435 76.728 15.7376 75.365 15.7376C72.9887 15.7376 70.7546 16.6629 69.0744 18.3433C65.6058 21.8118 65.6058 27.4555 69.0744 30.9241C70.7546 32.6045 72.9887 33.5297 75.365 33.5297C77.7413 33.5297 79.9752 32.6045 81.6554 30.9241C84.3983 28.1813 84.97 24.0791 83.375 20.767L88.7886 15.3534C90.3403 17.577 91.3696 20.2 91.7019 23.0555L93.8454 41.4767L43.6084 91.7132ZM77.512 26.7805C76.9385 27.3539 76.176 27.6698 75.365 27.6698C74.554 27.6698 73.7913 27.3539 73.2178 26.7805C72.0339 25.5964 72.0339 23.6703 73.2178 22.4865C73.7913 21.913 74.5538 21.5972 75.365 21.5972C76.1762 21.5972 76.9385 21.913 77.512 22.4865C78.6958 23.6705 78.6958 25.5966 77.512 26.7805Z" fill="black"/>
<path d="M64.2674 35.7519L55.6371 36.7709L54.9771 32.7992L40.5051 37.3034C36.0957 38.5689 33.0131 40.1231 31.0817 42.0542C23.7907 49.3457 23.683 61.1352 30.7485 68.5659C30.8563 68.6851 30.9675 68.8021 31.0819 68.9167C34.6694 72.5042 39.4394 74.4801 44.5132 74.4801C49.5867 74.4801 54.3567 72.5042 57.9442 68.9167C59.8756 66.9854 61.4298 63.903 62.6953 59.4935L67.1983 45.0075L63.2002 44.3298L64.2674 35.7519ZM34.1633 62.2099C34.1633 61.2417 34.5405 60.3315 35.2251 59.6467C35.915 58.9568 38.8826 58.1981 42.231 57.7692C41.8034 61.1145 41.0442 64.0807 40.3518 64.7731C39.6672 65.4577 38.7568 65.8349 37.7886 65.8349C36.8201 65.8349 35.9099 65.4577 35.2251 64.7731C34.5405 64.0883 34.1633 63.1781 34.1633 62.2099ZM57.0899 57.785L57.0709 57.8483C55.8595 62.0802 54.6239 63.9498 53.8006 64.7731C51.3819 67.1918 48.1853 68.5474 44.7753 68.614C47.6514 65.2786 48.2642 57.1555 48.3847 54.6827L48.5419 51.4563L45.3156 51.6136C42.8445 51.7341 34.7298 52.346 31.3905 55.2173C31.4567 51.9437 32.7324 48.6902 35.2249 46.1974C36.0482 45.3743 37.9179 44.1387 42.1498 42.9273L50.2987 40.392L50.7729 43.2455L57.5292 42.4478L56.6926 49.1695L59.6139 49.6648L57.0899 57.785Z" fill="black"/>
</svg>
