<svg width="80" height="80" viewBox="0 0 80 80" fill="none" xmlns="http://www.w3.org/2000/svg">
<g clip-path="url(#clip0)">
<path d="M79.9994 13.7194C79.9994 13.7106 79.9983 13.7019 79.998 13.693C79.997 13.6581 79.995 13.6237 79.9909 13.5897C79.9894 13.5772 79.987 13.5647 79.9851 13.5522C79.9805 13.5208 79.9747 13.4898 79.9675 13.4595C79.9647 13.4475 79.9616 13.4356 79.9583 13.4236C79.9492 13.3906 79.9389 13.3583 79.927 13.3264C79.9248 13.3203 79.9234 13.314 79.9211 13.3081L76.7422 5.17031C76.4217 4.35031 75.6456 3.82031 74.7652 3.82031H68.977C68.3461 3.82031 67.8347 4.33172 67.8347 4.96265C67.8347 5.59359 68.3461 6.105 68.977 6.105H74.6545L77.1844 12.5814H53.2666L51.768 6.105H60.6013C61.2322 6.105 61.7436 5.59359 61.7436 4.96265C61.7436 4.33172 61.2322 3.82031 60.6013 3.82031H50.3311H38.8207H14.3865C13.5059 3.82031 12.73 4.35031 12.4095 5.17062L9.23059 13.3081C9.22825 13.3142 9.227 13.3205 9.22465 13.3264C9.21278 13.3581 9.20246 13.3905 9.1934 13.4236C9.19012 13.4356 9.187 13.4475 9.18418 13.4595C9.177 13.49 9.17121 13.5209 9.16653 13.5522C9.16465 13.5647 9.16231 13.5772 9.16075 13.5897C9.15684 13.6237 9.15465 13.6581 9.15371 13.693C9.15356 13.7017 9.15246 13.7104 9.15231 13.7194C9.15231 13.7208 9.15215 13.7222 9.15215 13.7236V30.5064C9.15215 31.1373 9.66356 31.6487 10.2945 31.6487C10.9254 31.6487 11.4368 31.1373 11.4368 30.5064V14.8661H35.6512V32.2298C35.6512 32.9089 36.0512 33.5276 36.6704 33.8062C36.8971 33.9082 37.1385 33.9581 37.3783 33.9581C37.7933 33.9581 38.2038 33.809 38.5257 33.5237L44.5758 28.1637L50.626 33.5235C51.134 33.974 51.8624 34.0848 52.4816 33.8062C53.1007 33.5274 53.5007 32.9089 53.5007 32.2298V14.8661H77.7148V66.1039C77.7148 66.9236 77.0478 67.5907 76.2281 67.5907H55.2824C55.2824 67.5777 55.2808 67.5647 55.2807 67.5518C55.2794 67.4493 55.2757 67.3469 55.2669 67.2453C57.2336 67.7668 59.335 66.756 60.1232 64.8232C60.5377 63.8064 60.5316 62.6893 60.1058 61.6774C60.0657 61.5821 60.0214 61.4896 59.9749 61.3985C59.9663 61.3818 59.958 61.3649 59.9494 61.3483C59.9036 61.2615 59.8549 61.1766 59.8035 61.094C59.7935 61.0779 59.7832 61.0622 59.773 61.0463C59.7186 60.9615 59.6622 60.8782 59.6021 60.798C59.601 60.7965 59.5997 60.795 59.5986 60.7936C59.5389 60.7144 59.4758 60.6382 59.4107 60.5636C59.3988 60.55 59.3871 60.5363 59.375 60.5227C59.3105 60.4508 59.2435 60.3813 59.1741 60.3143C59.1605 60.3011 59.1468 60.2885 59.133 60.2757C59.0603 60.2074 58.986 60.141 58.9085 60.0783C58.9058 60.0763 58.9032 60.0743 58.9005 60.0722C58.8243 60.0108 58.745 59.9527 58.6643 59.8968C58.6497 59.8866 58.6353 59.8763 58.6205 59.8663C58.5397 59.8119 58.4569 59.7605 58.3719 59.7116C58.3649 59.7075 58.3585 59.7029 58.3513 59.6988C58.8341 59.281 59.2152 58.7522 59.4633 58.1438C59.8778 57.1271 59.8717 56.0099 59.446 54.9979C59.0735 54.1124 58.4186 53.4002 57.5799 52.9583C57.46 52.8952 57.3364 52.8376 57.2094 52.7858L39.4302 45.5363L47.7061 42.9748C49.675 42.3652 50.784 40.2652 50.178 38.2938C49.9519 37.5579 49.5036 36.9373 48.9246 36.4837C48.0629 35.8085 46.9111 35.5037 45.769 35.7435C45.7635 35.7448 45.7582 35.7457 45.7527 35.7471C45.6894 35.7613 39.3451 37.1879 32.719 38.4799C32.4251 38.5373 32.1387 38.5926 31.8563 38.647C31.6304 38.6904 31.4076 38.7332 31.189 38.7748C31.1262 38.7868 31.0632 38.7987 31.0009 38.8106C30.6149 38.8838 30.241 38.954 29.8776 39.0215C29.7313 39.0487 29.5863 39.0756 29.4437 39.1018C21.1223 40.6348 18.7846 40.6623 18.1359 40.5745C18.1334 40.5741 18.1312 40.5738 18.1287 40.5734C18.1189 40.572 18.1092 40.5706 18.1001 40.5691C18.0935 40.5681 18.0874 40.567 18.0814 40.566C18.077 40.5652 18.0723 40.5645 18.0681 40.5638C18.0276 40.5565 17.996 40.5488 17.9717 40.5415L17.7845 40.4652L18.0178 39.8932C18.2471 39.3307 18.2437 38.7126 18.0082 38.1527C17.9493 38.0127 17.8776 37.8806 17.7945 37.7574C17.5451 37.3882 17.1925 37.1007 16.7706 36.9287L10.635 34.427C10.0726 34.1974 9.45434 34.201 8.8945 34.4365C8.3345 34.672 7.89997 35.1115 7.67059 35.6738L0.16795 54.0743C-0.305487 55.2354 0.254043 56.5651 1.41513 57.0386L7.55091 59.5405C7.83106 59.6547 8.1209 59.7088 8.40637 59.7088C9.30371 59.7088 10.1559 59.1741 10.5151 58.2933L10.5715 58.155L11.9862 58.7318C11.987 58.7321 11.9878 58.7325 11.9887 58.7329C13.3418 59.2846 14.5885 60.0718 15.6676 61.0486C15.8639 61.2263 16.0545 61.4102 16.2393 61.6C16.4242 61.7899 16.6029 61.9858 16.7756 62.1874C16.8618 62.2882 16.9467 62.3905 17.0296 62.4941C18.602 64.4547 20.6632 65.9927 22.9903 66.9416L24.5818 67.5905H12.9237C12.104 67.5905 11.437 66.9235 11.437 66.1038V63.2133C11.437 62.5824 10.9256 62.071 10.2947 62.071C9.66371 62.071 9.15231 62.5824 9.15231 63.2133V66.1038C9.15231 68.1833 10.844 69.8752 12.9237 69.8752H30.1851L44.9008 75.8755C45.4074 76.082 45.9315 76.18 46.4476 76.1799C48.0693 76.1799 49.6096 75.2135 50.2588 73.6214C50.525 72.9685 50.6105 72.286 50.5388 71.6299C51.3043 71.7397 52.0979 71.6389 52.8172 71.3283C53.5483 71.0125 54.1543 70.5096 54.5846 69.875H76.2283C78.3078 69.875 79.9997 68.1833 79.9997 66.1036V13.7237C79.9995 13.7222 79.9994 13.7209 79.9994 13.7194ZM39.7288 6.105H49.4229L50.9215 12.5814H38.2302L39.7288 6.105ZM35.8852 12.5814H11.9673L14.4971 6.105H37.3838L35.8852 12.5814ZM51.2163 30.994H51.2161L45.7221 26.1268C45.3954 25.8375 44.9857 25.6928 44.5762 25.6928C44.1665 25.6928 43.7566 25.8375 43.4299 26.1268L37.936 30.994V14.8661H51.2163V30.994V30.994ZM8.40356 57.4208L2.28748 54.9271L9.78215 36.5467L15.8982 39.0406L8.40356 57.4208ZM54.0418 64.3147L52.7307 63.78C52.73 63.7797 52.7294 63.7796 52.7288 63.7793C52.7283 63.7791 52.7279 63.7788 52.7274 63.7786C52.7272 63.7786 52.7271 63.7785 52.7269 63.7785L39.0729 58.2111C38.4888 57.973 37.8221 58.2533 37.5838 58.8377C37.3455 59.4219 37.626 60.0886 38.2104 60.3269L51.8647 65.8944C51.9218 65.9177 51.9769 65.9435 52.0302 65.9718C52.0452 65.9797 52.0591 65.9894 52.0738 65.9977C52.1113 66.0189 52.149 66.0402 52.1844 66.0638C52.2015 66.0752 52.2171 66.0883 52.2336 66.1002C52.265 66.1227 52.2971 66.1449 52.3268 66.1693C52.3447 66.1839 52.361 66.2003 52.3783 66.2157C52.4049 66.2393 52.4321 66.2621 52.4571 66.2871C52.4744 66.3043 52.4899 66.3232 52.5065 66.341C52.5294 66.3657 52.553 66.3899 52.5746 66.4158C52.591 66.4357 52.6054 66.4568 52.621 66.4772C52.6405 66.5028 52.6608 66.528 52.6788 66.5546C52.694 66.5768 52.7069 66.6002 52.721 66.6228C52.7372 66.6491 52.7544 66.6749 52.7693 66.7019C52.7827 66.7263 52.794 66.7518 52.8063 66.7766C52.8194 66.8033 52.8336 66.8296 52.8455 66.8569C52.8569 66.8832 52.8661 66.9103 52.8763 66.9371C52.8866 66.9641 52.8979 66.9907 52.9069 67.0182C52.916 67.0458 52.9229 67.0741 52.9305 67.1021C52.9382 67.1297 52.9468 67.1569 52.9532 67.1849C52.9596 67.2132 52.9636 67.2419 52.9688 67.2703C52.9739 67.2988 52.9799 67.3269 52.9836 67.3557C52.9874 67.3844 52.9888 67.4135 52.9911 67.4424C52.9935 67.4714 52.9969 67.5003 52.9979 67.5294C52.9988 67.558 52.9974 67.5869 52.9971 67.6157C52.9968 67.6453 52.9972 67.675 52.9954 67.7049C52.9936 67.7332 52.9894 67.7614 52.9863 67.7897C52.983 67.8202 52.9805 67.8507 52.9755 67.881C52.971 67.9088 52.9639 67.9364 52.9582 67.9642C52.9516 67.995 52.9461 68.0258 52.9379 68.0564C52.9307 68.0835 52.921 68.1103 52.9124 68.1372C52.9027 68.1678 52.8938 68.1985 52.8824 68.2286C52.8727 68.2494 52.8632 68.2703 52.8543 68.2914C52.8522 68.2963 52.8511 68.3013 52.8493 68.306C52.6708 68.718 52.3414 69.0453 51.9113 69.2311C51.4379 69.4353 50.8958 69.4425 50.424 69.25L48.0047 68.2636C47.9935 68.2591 47.9821 68.256 47.9708 68.2518C47.9594 68.2466 47.9486 68.2407 47.9371 68.236L36.8315 63.7077C36.2469 63.4696 35.5805 63.7499 35.3424 64.3343C35.1041 64.9185 35.3846 65.5852 35.9688 65.8235L47.0744 70.3517C47.0863 70.3566 47.0983 70.36 47.1104 70.3644C47.1211 70.3691 47.1311 70.3749 47.1422 70.3792C48.0743 70.7594 48.5235 71.8269 48.1435 72.7589C47.7633 73.6913 46.6963 74.1406 45.7638 73.7602L30.8427 67.6761C30.8421 67.6758 30.8415 67.6755 30.8409 67.6752L23.8534 64.826C22.6234 64.3244 21.4812 63.6283 20.4729 62.7719C19.8679 62.258 19.3112 61.6866 18.8124 61.0647C18.321 60.4521 17.782 59.8807 17.202 59.3555C15.9259 58.2004 14.4517 57.2696 12.8518 56.6171C12.8517 56.6171 12.8515 56.6169 12.8514 56.6169L11.4348 56.0394L14.2562 49.1199L16.9225 42.581L17.1192 42.6612C17.3043 42.7366 17.5684 42.8438 18.279 42.8707C19.1668 42.9109 20.6356 42.8182 23.2668 42.4465C25.0567 42.1937 27.2521 41.8281 29.8151 41.3565C29.8782 41.3449 29.9409 41.3334 30.0046 41.3217C30.1245 41.2995 30.2456 41.277 30.3671 41.2545C30.4616 41.237 30.5566 41.2191 30.6524 41.2012C30.7615 41.1807 30.871 41.1602 30.9813 41.1395C31.0984 41.1174 31.2168 41.0951 31.3359 41.0724C31.4312 41.0543 31.5263 41.0363 31.6226 41.0181C31.7677 40.9904 31.9154 40.9621 32.0635 40.9337C32.1398 40.919 32.2152 40.9046 32.2921 40.8899C32.519 40.8462 32.7488 40.8018 32.9829 40.7563C39.5862 39.472 45.9596 38.0424 46.246 37.9781C46.2746 37.9721 46.3032 37.9687 46.3318 37.9645C47.0655 37.8559 47.7844 38.2802 47.9949 38.9649C48.0688 39.2056 48.0774 39.451 48.0308 39.682C47.9285 40.1902 47.5591 40.6288 47.0311 40.7921L35.7059 44.2974C35.2448 44.4402 34.9232 44.8569 34.9024 45.3391C34.8815 45.8212 35.1655 46.2644 35.6124 46.4466L56.3474 54.9015C56.7989 55.0855 57.1518 55.4344 57.3408 55.884C57.5299 56.3335 57.5327 56.8297 57.3485 57.2811C57.1643 57.7327 56.8155 58.0855 56.366 58.2746C56.1413 58.369 55.9049 58.4168 55.6682 58.4182C55.6647 58.4182 55.6613 58.4177 55.6579 58.4177C55.6022 58.4177 55.5468 58.4155 55.4913 58.4104C55.4749 58.4088 55.4586 58.4054 55.4422 58.4035C55.3999 58.3983 55.3575 58.3935 55.3155 58.3854C55.2889 58.3802 55.2627 58.3724 55.2363 58.3661C55.2047 58.3586 55.173 58.3522 55.1418 58.343C55.1094 58.3335 55.0777 58.3208 55.0458 58.3094C55.0205 58.3004 54.9947 58.2929 54.9697 58.2827L41.3141 52.7146C40.7299 52.4763 40.0633 52.7568 39.8251 53.3412C39.5868 53.9254 39.8673 54.5921 40.4516 54.8304L57.0071 61.5808C57.12 61.6268 57.2268 61.6832 57.3263 61.7488C57.6249 61.9457 57.8588 62.2261 58.0005 62.5633C58.166 62.9566 58.1888 63.3857 58.0685 63.7893C58.0513 63.8469 58.0311 63.9041 58.0082 63.9605C57.9844 64.0188 57.958 64.0752 57.9291 64.1296C57.8618 64.2561 57.7797 64.3705 57.6882 64.4747C57.6313 64.5394 57.5705 64.5997 57.5058 64.655C57.4955 64.6638 57.4861 64.6738 57.4757 64.6822C57.0588 65.0232 56.5014 65.1697 55.9569 65.0597C55.8464 65.0374 55.7366 65.0057 55.6285 64.9616L54.0418 64.3147Z" fill="#C09F87"/>
</g>
<defs>
<clipPath id="clip0">
<rect width="80" height="80" fill="white"/>
</clipPath>
</defs>
</svg>
