<svg width="80" height="80" viewBox="0 0 80 80" fill="none" xmlns="http://www.w3.org/2000/svg">
<g clip-path="url(#clip0)">
<path d="M63.2245 49.5571C61.5867 47.8518 59.6112 46.94 57.5175 46.94C55.4407 46.94 53.4483 47.8349 51.743 49.5402L46.4075 54.8588C45.9685 54.6225 45.5295 54.403 45.1074 54.1835C44.4995 53.8795 43.9254 53.5925 43.4358 53.2886C38.438 50.1143 33.896 45.9776 29.5398 40.6252C27.4292 37.9574 26.0109 35.7118 24.981 33.4324C26.3655 32.166 27.6487 30.849 28.8982 29.5827C29.371 29.1099 29.8437 28.6203 30.3165 28.1475C33.8623 24.6017 33.8623 20.0091 30.3165 16.4634L25.707 11.8539C25.1836 11.3305 24.6433 10.7902 24.1368 10.2499C23.1237 9.20303 22.06 8.12242 20.9625 7.10935C19.3247 5.48843 17.366 4.62732 15.3061 4.62732C13.2462 4.62732 11.2538 5.48843 9.56538 7.10935C9.5485 7.12623 9.5485 7.12623 9.53162 7.14312L3.79087 12.9345C1.62964 15.0957 0.397072 17.7297 0.126919 20.7858C-0.27831 25.7161 1.17376 30.3087 2.28814 33.3142C5.02344 40.6927 9.1095 47.531 15.2048 54.8588C22.6003 63.6895 31.4984 70.6628 41.6629 75.5762C45.5464 77.4166 50.7299 79.5947 56.5213 79.9662C56.8759 79.983 57.2474 79.9999 57.585 79.9999C61.4854 79.9999 64.761 78.5985 67.3274 75.8126C67.3443 75.7788 67.3781 75.7619 67.395 75.7281C68.273 74.6644 69.286 73.702 70.3498 72.672C71.0758 71.9798 71.8187 71.2537 72.5448 70.4939C74.2163 68.7548 75.0943 66.7287 75.0943 64.6519C75.0943 62.5582 74.1994 60.5489 72.4941 58.8605L63.2245 49.5571ZM69.2692 67.3365C69.2523 67.3365 69.2523 67.3534 69.2692 67.3365C68.6107 68.0457 67.9353 68.6873 67.2092 69.3964C66.1117 70.4433 64.9974 71.5408 63.9505 72.7733C62.2452 74.5969 60.2359 75.458 57.6019 75.458C57.3487 75.458 57.0785 75.458 56.8252 75.4411C51.8105 75.1203 47.1504 73.1617 43.6553 71.4901C34.0986 66.8638 25.707 60.2957 18.7337 51.9716C12.9761 45.032 9.12639 38.6159 6.57682 31.727C5.00656 27.5228 4.43248 24.2472 4.68575 21.1573C4.85459 19.1818 5.6144 17.544 7.01582 16.1426L12.7734 10.3849C13.6008 9.60826 14.4788 9.18615 15.3399 9.18615C16.4036 9.18615 17.2647 9.82776 17.805 10.3681C17.8219 10.3849 17.8388 10.4018 17.8557 10.4187C18.8857 11.3811 19.865 12.3773 20.8949 13.4411C21.4183 13.9814 21.9586 14.5217 22.499 15.0789L27.1084 19.6883C28.8982 21.4781 28.8982 23.1328 27.1084 24.9225C26.6188 25.4122 26.146 25.9018 25.6564 26.3746C24.2381 27.8267 22.8873 29.1774 21.4183 30.4944C21.3846 30.5282 21.3508 30.5451 21.3339 30.5789C19.8818 32.0309 20.152 33.4492 20.4559 34.4117C20.4728 34.4623 20.4897 34.513 20.5066 34.5636C21.7054 37.4678 23.3938 40.2031 25.9603 43.4618L25.9772 43.4787C30.6373 49.2194 35.5507 53.6938 40.9707 57.1214C41.6629 57.5604 42.3721 57.9149 43.0474 58.2526C43.6553 58.5566 44.2294 58.8436 44.719 59.1475C44.7866 59.1813 44.8541 59.2319 44.9216 59.2657C45.4957 59.5527 46.036 59.6878 46.5932 59.6878C47.9946 59.6878 48.8726 58.8098 49.1597 58.5228L54.9342 52.7483C55.5082 52.1742 56.42 51.4819 57.4837 51.4819C58.5306 51.4819 59.3917 52.1404 59.9151 52.7145C59.932 52.7314 59.932 52.7314 59.9489 52.7483L69.2523 62.0517C70.9914 63.7739 70.9914 65.5468 69.2692 67.3365Z" fill="#C09F87"/>
<path d="M43.2339 19.0299C47.6576 19.7728 51.6762 21.8665 54.8842 25.0745C58.0923 28.2826 60.1691 32.3011 60.9289 36.7249C61.1146 37.8393 62.0771 38.6159 63.1745 38.6159C63.3096 38.6159 63.4278 38.5991 63.5629 38.5822C64.8123 38.3796 65.6397 37.1976 65.4371 35.9482C64.5253 30.5958 61.9926 25.7161 58.1261 21.8496C54.2595 17.983 49.3799 15.4503 44.0275 14.5386C42.778 14.336 41.613 15.1633 41.3935 16.3959C41.174 17.6284 41.9844 18.8272 43.2339 19.0299Z" fill="#C09F87"/>
<path d="M79.9071 35.2897C78.4044 26.4759 74.2508 18.4558 67.8685 12.0734C61.4861 5.69107 53.4659 1.53748 44.6522 0.0347509C43.4196 -0.184748 42.2546 0.659479 42.0351 1.89205C41.8325 3.14151 42.6598 4.30654 43.9093 4.52604C51.7775 5.85992 58.9534 9.5914 64.6604 15.2815C70.3674 20.9885 74.082 28.1644 75.4158 36.0326C75.6016 37.147 76.564 37.9237 77.6615 37.9237C77.7966 37.9237 77.9148 37.9068 78.0498 37.8899C79.2824 37.7042 80.1266 36.5223 79.9071 35.2897Z" fill="#C09F87"/>
</g>
<defs>
<clipPath id="clip0">
<rect width="80" height="80" fill="white"/>
</clipPath>
</defs>
</svg>
