<svg width="70" height="70" viewBox="0 0 70 70" fill="none" xmlns="http://www.w3.org/2000/svg">
<g clip-path="url(#clip0)">
<path d="M55.3214 43.3625C53.8883 41.8703 52.1598 41.0725 50.3278 41.0725C48.5106 41.0725 46.7673 41.8556 45.2751 43.3477L40.6065 48.0015C40.2224 47.7947 39.8383 47.6026 39.4689 47.4106C38.9371 47.1446 38.4348 46.8935 38.0063 46.6275C33.6332 43.85 29.659 40.2304 25.8473 35.5471C24.0006 33.2128 22.7596 31.2478 21.8584 29.2534C23.0698 28.1453 24.1926 26.9929 25.2859 25.8849C25.6996 25.4712 26.1133 25.0428 26.5269 24.6291C29.6295 21.5266 29.6295 17.508 26.5269 14.4055L22.4936 10.3722C22.0356 9.91422 21.5629 9.44145 21.1197 8.96868C20.2332 8.0527 19.3025 7.10716 18.3421 6.22072C16.9091 4.80242 15.1953 4.04895 13.3929 4.04895C11.5904 4.04895 9.84711 4.80242 8.36971 6.22072C8.35493 6.2355 8.35494 6.2355 8.34016 6.25027L3.31701 11.3177C1.42594 13.2088 0.347437 15.5136 0.111053 18.1876C-0.243522 22.5016 1.02704 26.5202 2.00212 29.1499C4.39551 35.6062 7.97081 41.5896 13.3042 48.0015C19.7752 55.7283 27.5611 61.83 36.455 66.1292C39.8531 67.7396 44.3887 69.6454 49.4562 69.9704C49.7664 69.9852 50.0914 70 50.3869 70C53.7997 70 56.6659 68.7737 58.9115 66.336C58.9263 66.3065 58.9558 66.2917 58.9706 66.2622C59.7388 65.3314 60.6253 64.4893 61.556 63.5881C62.1913 62.9823 62.8414 62.3471 63.4767 61.6822C64.9393 60.1605 65.7075 58.3876 65.7075 56.5704C65.7075 54.7385 64.9245 52.9804 63.4323 51.503L55.3214 43.3625ZM60.6105 58.9195C60.5957 58.9195 60.5957 58.9343 60.6105 58.9195C60.0343 59.54 59.4434 60.1014 58.8081 60.7219C57.8478 61.6379 56.8727 62.5982 55.9567 63.6767C54.4645 65.2723 52.7064 66.0258 50.4017 66.0258C50.1801 66.0258 49.9437 66.0258 49.7221 66.011C45.3342 65.7303 41.2566 64.0165 38.1984 62.5539C29.8363 58.5058 22.4936 52.7588 16.392 45.4752C11.3541 39.4031 7.98559 33.789 5.75471 27.7612C4.38073 24.0825 3.87842 21.2163 4.10003 18.5127C4.24777 16.7841 4.9126 15.351 6.13884 14.1248L11.1768 9.08688C11.9007 8.40727 12.6689 8.03792 13.4224 8.03792C14.3532 8.03792 15.1066 8.59934 15.5794 9.0721C15.5942 9.08688 15.609 9.10165 15.6237 9.11642C16.5249 9.95854 17.3818 10.8302 18.2831 11.761C18.741 12.2337 19.2138 12.7065 19.6866 13.194L23.7199 17.2273C25.2859 18.7934 25.2859 20.2412 23.7199 21.8073C23.2914 22.2357 22.8778 22.6642 22.4493 23.0778C21.2083 24.3484 20.0264 25.5303 18.741 26.6827C18.7115 26.7122 18.6819 26.727 18.6672 26.7566C17.3966 28.0271 17.633 29.2681 17.8989 30.1102C17.9137 30.1546 17.9285 30.1989 17.9432 30.2432C18.9922 32.7843 20.4696 35.1777 22.7152 38.0291L22.73 38.0439C26.8076 43.067 31.1069 46.9821 35.8493 49.9812C36.455 50.3654 37.0756 50.6756 37.6665 50.9711C38.1984 51.237 38.7007 51.4882 39.1291 51.7541C39.1882 51.7837 39.2473 51.828 39.3064 51.8575C39.8087 52.1087 40.2815 52.2269 40.769 52.2269C41.9953 52.2269 42.7635 51.4586 43.0147 51.2075L48.0674 46.1548C48.5697 45.6525 49.3675 45.0467 50.2983 45.0467C51.2143 45.0467 51.9677 45.6229 52.4257 46.1252C52.4405 46.14 52.4405 46.14 52.4553 46.1548L60.5957 54.2952C62.1175 55.8022 62.1175 57.3535 60.6105 58.9195Z" fill="#C09F87"/>
<path d="M37.8297 16.6512C41.7004 17.3012 45.2166 19.1332 48.0237 21.9402C50.8308 24.7473 52.648 28.2635 53.3128 32.1343C53.4753 33.1094 54.3174 33.789 55.2777 33.789C55.3959 33.789 55.4993 33.7742 55.6175 33.7594C56.7108 33.5821 57.4347 32.548 57.2574 31.4547C56.4596 26.7713 54.2436 22.5017 50.8603 19.1184C47.4771 15.7352 43.2074 13.5191 38.524 12.7213C37.4308 12.544 36.4114 13.2679 36.2193 14.3464C36.0272 15.4249 36.7364 16.4739 37.8297 16.6512Z" fill="#C09F87"/>
<path d="M69.9187 30.8785C68.6039 23.1665 64.9695 16.1488 59.3849 10.5643C53.8003 4.97969 46.7827 1.34529 39.0707 0.030407C37.9922 -0.161655 36.9728 0.577044 36.7807 1.65554C36.6034 2.74882 37.3273 3.76822 38.4206 3.96028C45.3053 5.12743 51.5842 8.39248 56.5778 13.3713C61.5714 18.3649 64.8217 24.6439 65.9889 31.5285C66.1514 32.5036 66.9935 33.1832 67.9538 33.1832C68.072 33.1832 68.1754 33.1684 68.2936 33.1537C69.3721 32.9912 70.1108 31.957 69.9187 30.8785Z" fill="#C09F87"/>
</g>
<defs>
<clipPath id="clip0">
<rect width="70" height="70" fill="white"/>
</clipPath>
</defs>
</svg>
