<svg width="90" height="90" viewBox="0 0 90 90" fill="none" xmlns="http://www.w3.org/2000/svg">
<path d="M16.875 48.7499C11.7076 48.7499 7.50006 52.9574 7.50006 58.1248C7.50006 63.2923 11.7076 67.4999 16.875 67.4999C22.0424 67.4999 26.2499 63.2924 26.2499 58.125C26.2499 52.9575 22.0424 48.7499 16.875 48.7499ZM16.875 63.75C13.7737 63.75 11.25 61.2263 11.25 58.125C11.25 55.0237 13.7737 52.5 16.875 52.5C19.9763 52.5 22.5 55.0237 22.5 58.125C22.5 61.2261 19.9763 63.75 16.875 63.75Z" fill="#C09F87"/>
<path d="M73.125 48.7499C67.9576 48.7499 63.7501 52.9574 63.7501 58.1248C63.7501 63.2923 67.9576 67.4999 73.125 67.4999C78.2924 67.4999 82.4999 63.2924 82.4999 58.125C82.4999 52.9575 78.2924 48.7499 73.125 48.7499ZM73.125 63.75C70.0237 63.75 67.5 61.2263 67.5 58.125C67.5 55.0237 70.0237 52.5 73.125 52.5C76.2263 52.5 78.75 55.0237 78.75 58.125C78.75 61.2261 76.2263 63.75 73.125 63.75Z" fill="#C09F87"/>
<path d="M78.75 37.4999H75.5775C74.4187 37.4999 73.2825 37.1025 72.3749 36.3749L57.6 24.5549C55.9426 23.2313 53.8613 22.5 51.7424 22.5H24.6375C21.4951 22.5 18.5813 24.0601 16.8376 26.6738L13.6463 31.4662C12.69 32.895 11.0925 33.75 9.37494 33.75C4.2075 33.75 0 37.9575 0 43.1249V50.625C0 55.7924 4.2075 59.9999 9.37494 59.9999C10.4099 59.9999 11.25 59.1599 11.25 58.1249C11.25 57.0899 10.4099 56.25 9.37494 56.25C6.27363 56.25 3.74994 53.7263 3.74994 50.625V43.1249C3.74994 40.0236 6.27363 37.4999 9.37494 37.4999C12.3525 37.4999 15.1124 36.0225 16.7662 33.5436L19.9575 28.7548C21.0038 27.1874 22.7551 26.2498 24.6375 26.2498H51.7424C53.0174 26.2498 54.2624 26.6885 55.26 27.4836L70.0349 39.2998C71.5987 40.5561 73.5711 41.2497 75.5812 41.2497H78.75C84.2512 41.2497 86.2501 46.8559 86.2501 50.6246C86.2501 54.3183 83.4226 56.2496 80.6251 56.2496C79.5901 56.2496 78.75 57.0897 78.75 58.1247C78.75 59.1597 79.5901 59.9998 80.6251 59.9998C85.9688 59.9999 90 55.9687 90 50.625C90 44.2612 86.0588 37.4999 78.75 37.4999Z" fill="#C09F87"/>
<path d="M65.6249 56.25H24.3751C23.3401 56.25 22.5 57.0901 22.5 58.1251C22.5 59.1601 23.3401 60.0001 24.3751 60.0001H65.6251C66.6601 60.0001 67.5002 59.1601 67.5002 58.1251C67.5002 57.0901 66.6599 56.25 65.6249 56.25Z" fill="#C09F87"/>
<path d="M61.875 37.4999H45V31.8749C45 30.8399 44.1599 29.9999 43.1249 29.9999C42.0899 29.9999 41.2499 30.8399 41.2499 31.8749V39.375C41.2499 40.41 42.0899 41.2501 43.1249 41.2501H61.875C62.91 41.2501 63.7501 40.41 63.7501 39.375C63.7501 38.34 62.91 37.4999 61.875 37.4999Z" fill="#C09F87"/>
<path d="M35.6251 37.5H23.6588L26.055 32.7151C26.5163 31.7889 26.1413 30.6639 25.215 30.1988C24.2849 29.7375 23.1638 30.1088 22.6987 31.0388L18.9487 38.5389C18.6562 39.1163 18.69 39.8101 19.0312 40.3614C19.3723 40.9126 19.9762 41.2502 20.625 41.2502H35.6249C36.6599 41.2502 37.5 40.4101 37.5 39.3751C37.5 38.3401 36.6601 37.5 35.6251 37.5Z" fill="#C09F87"/>
<path d="M50.625 45H46.8751C45.8401 45 45 45.8401 45 46.8751C45 47.9101 45.8401 48.7501 46.8751 48.7501H50.625C51.66 48.7501 52.5001 47.9101 52.5001 46.8751C52.5001 45.8401 51.66 45 50.625 45Z" fill="#C09F87"/>
</svg>
