<svg width="80" height="80" viewBox="0 0 80 80" fill="none" xmlns="http://www.w3.org/2000/svg">
<path d="M15 43.3333C10.4067 43.3333 6.66675 47.0732 6.66675 51.6665C6.66675 56.2598 10.4067 60 15 60C19.5933 60 23.3333 56.26 23.3333 51.6667C23.3333 47.0734 19.5933 43.3333 15 43.3333ZM15 56.6667C12.2433 56.6667 10 54.4234 10 51.6667C10 48.91 12.2433 46.6667 15 46.6667C17.7567 46.6667 20 48.91 20 51.6667C20 54.4232 17.7567 56.6667 15 56.6667Z" fill="#C09F87"/>
<path d="M65 43.3333C60.4067 43.3333 56.6667 47.0732 56.6667 51.6665C56.6667 56.2598 60.4067 60 65 60C69.5933 60 73.3333 56.26 73.3333 51.6667C73.3333 47.0734 69.5933 43.3333 65 43.3333ZM65 56.6667C62.2433 56.6667 60 54.4234 60 51.6667C60 48.91 62.2433 46.6667 65 46.6667C67.7567 46.6667 70 48.91 70 51.6667C70 54.4232 67.7567 56.6667 65 56.6667Z" fill="#C09F87"/>
<path d="M70 33.3333H67.18C66.15 33.3333 65.14 32.98 64.3333 32.3333L51.2 21.8266C49.7267 20.65 47.8767 20 45.9933 20H21.9C19.1067 20 16.5167 21.3867 14.9667 23.71L12.13 27.97C11.28 29.24 9.86 30 8.33328 30C3.74 30 0 33.74 0 38.3333V45C0 49.5933 3.74 53.3333 8.33328 53.3333C9.25328 53.3333 10 52.5866 10 51.6666C10 50.7466 9.25328 50 8.33328 50C5.57656 50 3.33328 47.7567 3.33328 45V38.3333C3.33328 35.5766 5.57656 33.3333 8.33328 33.3333C10.98 33.3333 13.4333 32.02 14.9033 29.8166L17.74 25.5598C18.67 24.1666 20.2267 23.3331 21.9 23.3331H45.9933C47.1266 23.3331 48.2333 23.7231 49.12 24.4298L62.2533 34.9331C63.6433 36.0498 65.3966 36.6664 67.1833 36.6664H70C74.89 36.6664 76.6667 41.6497 76.6667 44.9997C76.6667 48.283 74.1534 49.9997 71.6667 49.9997C70.7467 49.9997 70 50.7464 70 51.6664C70 52.5864 70.7467 53.3331 71.6667 53.3331C76.4167 53.3333 80 49.75 80 45C80 39.3433 76.4967 33.3333 70 33.3333Z" fill="#C09F87"/>
<path d="M58.3333 50H21.6667C20.7467 50 20 50.7467 20 51.6667C20 52.5867 20.7467 53.3334 21.6667 53.3334H58.3334C59.2534 53.3334 60.0002 52.5867 60.0002 51.6667C60.0002 50.7467 59.2533 50 58.3333 50Z" fill="#C09F87"/>
<path d="M55 33.3332H40V28.3332C40 27.4132 39.2533 26.6665 38.3333 26.6665C37.4133 26.6665 36.6666 27.4132 36.6666 28.3332V34.9999C36.6666 35.9199 37.4133 36.6667 38.3333 36.6667H55C55.92 36.6667 56.6667 35.9199 56.6667 34.9999C56.6667 34.0799 55.92 33.3332 55 33.3332Z" fill="#C09F87"/>
<path d="M31.6667 33.3334H21.03L23.16 29.0801C23.57 28.2569 23.2367 27.2569 22.4133 26.8434C21.5866 26.4334 20.59 26.7634 20.1766 27.5901L16.8433 34.2569C16.5833 34.7701 16.6133 35.3869 16.9166 35.8769C17.2199 36.3669 17.7566 36.6669 18.3333 36.6669H31.6666C32.5866 36.6669 33.3333 35.9201 33.3333 35.0001C33.3333 34.0801 32.5867 33.3334 31.6667 33.3334Z" fill="#C09F87"/>
<path d="M45 40H41.6667C40.7467 40 40 40.7467 40 41.6667C40 42.5867 40.7467 43.3334 41.6667 43.3334H45C45.92 43.3334 46.6667 42.5867 46.6667 41.6667C46.6667 40.7467 45.92 40 45 40Z" fill="#C09F87"/>
</svg>
