<svg width="80" height="80" viewBox="0 0 80 80" fill="none" xmlns="http://www.w3.org/2000/svg">
<path d="M48.3351 77.838H31.0011C29.5537 77.8676 28.1177 77.5775 26.7954 76.9883C25.4731 76.3991 24.2971 75.5253 23.3514 74.4293C22.3657 73.2135 21.6774 71.7844 21.3415 70.2557C21.0055 68.727 21.0311 67.141 21.4162 65.6239C21.8141 63.7938 22.6102 62.0738 23.7482 60.5863C24.8861 59.0988 26.3378 57.8803 28 57.0174C29.0275 56.5483 29.9384 55.8576 30.6673 54.9948C31.3963 54.132 31.9252 53.1185 32.2162 52.0272C32.2817 51.8026 32.4183 51.6053 32.6054 51.465C32.7925 51.3246 33.0201 51.2488 33.2541 51.2488H46.0757C46.3096 51.2488 46.5372 51.3246 46.7243 51.465C46.9115 51.6053 47.048 51.8026 47.1135 52.0272C47.4054 53.1191 47.9354 54.1328 48.6655 54.9956C49.3956 55.8584 50.3076 56.5489 51.3362 57.0174C52.9975 57.8806 54.4482 59.0991 55.5852 60.5864C56.7222 62.0737 57.5175 63.7933 57.9146 65.6228C58.3 67.14 58.3259 68.7261 57.9901 70.255C57.6543 71.7839 56.9662 73.2133 55.9805 74.4293C55.0353 75.5248 53.86 76.3982 52.5385 76.9874C51.2169 77.5766 49.7817 77.867 48.3351 77.838V77.838ZM34.0378 53.4109C33.6029 54.6352 32.9251 55.759 32.0451 56.7148C31.1651 57.6706 30.101 58.4387 28.9168 58.9731C27.5513 59.6919 26.3607 60.7024 25.4296 61.9329C24.4984 63.1634 23.8494 64.5837 23.5286 66.0931C23.2189 67.2882 23.1921 68.5392 23.4506 69.7464C23.709 70.9537 24.2454 72.0841 25.0173 73.0477C25.7598 73.8991 26.6811 74.5761 27.7155 75.0304C28.7499 75.4847 29.8717 75.7051 31.0011 75.6758H48.3351C49.4646 75.7046 50.5864 75.484 51.6209 75.0297C52.6553 74.5755 53.5769 73.8987 54.32 73.0477C55.0919 72.0839 55.6283 70.9533 55.8865 69.7458C56.1448 68.5383 56.1177 67.2872 55.8076 66.092C55.4862 64.583 54.837 63.1631 53.9059 61.9328C52.9748 60.7026 51.7845 59.6922 50.4195 58.9731C49.2398 58.4315 48.1796 57.6608 47.3003 56.706C46.4209 55.7511 45.7401 54.6311 45.2973 53.4109H34.0378Z" fill="#C09F87"/>
<path d="M45.2908 53.4108H34.0476C33.1682 53.4108 32.3248 53.0614 31.703 52.4396C31.0812 51.8178 30.7319 50.9745 30.7319 50.0951C30.7319 49.2157 31.0812 48.3724 31.703 47.7506C32.3248 47.1287 33.1682 46.7794 34.0476 46.7794H45.2908C46.1702 46.7794 47.0135 47.1287 47.6353 47.7506C48.2572 48.3724 48.6065 49.2157 48.6065 50.0951C48.6065 50.9745 48.2572 51.8178 47.6353 52.4396C47.0135 53.0614 46.1702 53.4108 45.2908 53.4108V53.4108ZM34.0476 48.9416C33.7416 48.9416 33.4482 49.0631 33.2319 49.2794C33.0156 49.4958 32.8941 49.7892 32.8941 50.0951C32.8941 50.401 33.0156 50.6944 33.2319 50.9108C33.4482 51.1271 33.7416 51.2486 34.0476 51.2486H45.2908C45.5967 51.2486 45.8901 51.1271 46.1065 50.9108C46.3228 50.6944 46.4443 50.401 46.4443 50.0951C46.4443 49.7892 46.3228 49.4958 46.1065 49.2794C45.8901 49.0631 45.5967 48.9416 45.2908 48.9416H34.0476Z" fill="#C09F87"/>
<path d="M45.3459 48.9417H33.9946C33.7622 48.9418 33.5359 48.8669 33.3493 48.7283C33.1628 48.5896 33.0259 48.3945 32.9589 48.172C32.9027 47.9817 31.6108 43.4649 35.9946 38.7395C36.0959 38.6306 36.2185 38.5438 36.3549 38.4845C36.4912 38.4251 36.6383 38.3945 36.787 38.3947H42.5578C42.7067 38.3944 42.8541 38.4249 42.9906 38.4842C43.1271 38.5436 43.25 38.6305 43.3514 38.7395C47.733 43.4649 46.4432 47.9817 46.386 48.172C46.3188 48.3953 46.1812 48.5909 45.9938 48.7296C45.8064 48.8683 45.5791 48.9427 45.3459 48.9417ZM34.9081 46.7795H44.4324C44.4748 45.6373 44.2879 44.4982 43.8827 43.4294C43.4775 42.3607 42.8624 41.3839 42.0735 40.5568H37.2659C36.4777 41.3843 35.8631 42.3612 35.4581 43.4299C35.0532 44.4986 34.8662 45.6375 34.9081 46.7795Z" fill="#C09F87"/>
<path d="M42.5513 40.5599H36.7849C36.5104 40.5606 36.246 40.4568 36.0453 40.2697C35.8445 40.0826 35.7224 39.8262 35.7038 39.5524C35.5875 38.1722 35.6216 36.7835 35.8054 35.4107C36.1514 33.1929 36.0038 30.926 35.373 28.7718C33.986 24.3943 33.5006 19.7811 33.9459 15.2107C33.9836 14.9265 34.1327 14.6688 34.3604 14.4944C34.5881 14.3201 34.8757 14.2433 35.16 14.281C35.4443 14.3187 35.7019 14.4678 35.8763 14.6955C36.0507 14.9232 36.1274 15.2108 36.0897 15.4951C35.6857 19.7646 36.1486 24.0717 37.4508 28.1578C38.1699 30.6151 38.3386 33.2008 37.9449 35.7307C37.8207 36.614 37.7762 37.5066 37.8119 38.3978H41.52C41.5552 37.5059 41.5107 36.6126 41.387 35.7286C40.9946 33.2004 41.1633 30.6168 41.8811 28.161C43.1843 24.074 43.6477 19.7657 43.2432 15.4951C43.2207 15.3526 43.2269 15.207 43.2614 15.067C43.296 14.927 43.3583 14.7952 43.4445 14.6796C43.5308 14.564 43.6393 14.4668 43.7637 14.3938C43.8881 14.3208 44.0258 14.2734 44.1688 14.2544C44.3118 14.2354 44.4572 14.2452 44.5963 14.2833C44.7354 14.3214 44.8655 14.3869 44.979 14.476C45.0924 14.5651 45.1868 14.6761 45.2567 14.8022C45.3266 14.9284 45.3705 15.0673 45.3859 15.2107C45.8323 19.7816 45.3461 24.3955 43.9568 28.7729C43.3266 30.9261 43.1789 33.1918 43.5243 35.4086C43.7076 36.7818 43.7417 38.1708 43.6259 39.5513C43.6076 39.8242 43.4866 40.0799 43.2872 40.2671C43.0878 40.4543 42.8248 40.5589 42.5513 40.5599V40.5599Z" fill="#C09F87"/>
<path d="M45.8984 16.4325H33.4378C31.7437 16.4307 30.1195 15.7571 28.9215 14.5593C27.7235 13.3615 27.0496 11.7374 27.0476 10.0433V9.82705C27.0476 9.54033 27.1615 9.26535 27.3642 9.06261C27.5669 8.85987 27.8419 8.74597 28.1286 8.74597H51.2076C51.4943 8.74597 51.7693 8.85987 51.972 9.06261C52.1748 9.26535 52.2887 9.54033 52.2887 9.82705V10.0433C52.2867 11.7374 51.6127 13.3615 50.4147 14.5593C49.2167 15.7571 47.5925 16.4307 45.8984 16.4325V16.4325ZM29.2973 10.9071C29.4971 11.8575 30.0176 12.7103 30.7714 13.3226C31.5253 13.9349 32.4667 14.2695 33.4378 14.2703H45.8984C46.8695 14.2692 47.8108 13.9343 48.5644 13.3218C49.3181 12.7093 49.8383 11.8564 50.0378 10.906L29.2973 10.9071Z" fill="#C09F87"/>
<path d="M45.52 10.7935H33.8162C33.5295 10.7935 33.2545 10.6796 33.0518 10.4768C32.849 10.2741 32.7351 9.9991 32.7351 9.71238V3.24319C32.7351 2.95647 32.849 2.68149 33.0518 2.47875C33.2545 2.27601 33.5295 2.16211 33.8162 2.16211H45.52C45.8067 2.16211 46.0817 2.27601 46.2844 2.47875C46.4872 2.68149 46.6011 2.95647 46.6011 3.24319V9.71238C46.6011 9.9991 46.4872 10.2741 46.2844 10.4768C46.0817 10.6796 45.8067 10.7935 45.52 10.7935ZM34.8973 8.6313H44.4389V4.32427H34.8973V8.6313Z" fill="#C09F87"/>
<path d="M26.2227 60.5817C26.0401 60.5818 25.8605 60.5356 25.7006 60.4475C25.5406 60.3594 25.4056 60.2323 25.3081 60.0779L20.9946 53.2671C20.575 52.6213 20.3523 51.8675 20.3535 51.0973C20.3523 50.2289 20.6322 49.3833 21.1514 48.6872C21.6707 47.991 22.4013 47.4816 23.2341 47.2352C24.0669 46.9888 24.9571 47.0186 25.7715 47.3202C26.586 47.6217 27.2809 48.1788 27.7524 48.9082L31.9795 55.5936C32.0554 55.7136 32.1069 55.8474 32.131 55.9873C32.1552 56.1273 32.1516 56.2706 32.1203 56.4091C32.0891 56.5477 32.0309 56.6787 31.9491 56.7948C31.8672 56.9108 31.7633 57.0096 31.6433 57.0855C31.5232 57.1613 31.3894 57.2128 31.2495 57.237C31.1095 57.2612 30.9662 57.2576 30.8277 57.2263C30.6891 57.1951 30.5581 57.1369 30.4421 57.0551C30.326 56.9732 30.2272 56.8693 30.1514 56.7492L25.9287 50.0714C25.6594 49.6623 25.2396 49.376 24.7604 49.2748C24.2812 49.1736 23.7814 49.2656 23.3697 49.5309C23.1068 49.6998 22.8907 49.9322 22.7414 50.2068C22.5921 50.4814 22.5145 50.7892 22.5157 51.1017C22.516 51.4576 22.6197 51.8057 22.8141 52.1038L27.1384 58.9309C27.2419 59.0943 27.2996 59.2825 27.3056 59.4758C27.3116 59.6692 27.2656 59.8606 27.1724 60.0301C27.0792 60.1996 26.9422 60.341 26.7757 60.4396C26.6093 60.5381 26.4194 60.5902 26.226 60.5903L26.2227 60.5817Z" fill="#C09F87"/>
<path d="M22.7795 49.6973C22.5655 49.6976 22.3562 49.6343 22.1782 49.5156C22.0002 49.3969 21.8614 49.228 21.7795 49.0303C21.7795 49.0303 21.72 48.8843 21.627 48.6184C20.93 46.5948 20.7705 44.425 21.1641 42.3213C21.5577 40.2175 22.4909 38.2521 23.8723 36.6174C25.2537 34.9827 27.036 33.7348 29.0447 32.9959C31.0533 32.257 33.2194 32.0524 35.3308 32.4022C36.6811 32.6292 38.1308 32.9265 39.5319 33.2152C45.3092 34.4043 51.8562 35.7427 54.0476 32.6433C54.6372 31.858 55.0622 30.9616 55.297 30.0081C55.5318 29.0545 55.5716 28.0634 55.4141 27.0941C55.3678 26.8111 55.4358 26.5213 55.6031 26.2884C55.7705 26.0556 56.0235 25.8988 56.3065 25.8525C56.5895 25.8061 56.8793 25.8742 57.1121 26.0415C57.345 26.2089 57.5018 26.4619 57.5481 26.7449C57.7552 27.9914 57.7087 29.267 57.4115 30.4952C57.1143 31.7234 56.5725 32.879 55.8184 33.893C52.8087 38.146 45.84 36.7157 39.1027 35.333C37.6551 35.0357 36.2919 34.7546 34.9773 34.5341C33.2361 34.2458 31.4498 34.4144 29.7933 35.0235C28.1368 35.6326 26.6668 36.6613 25.527 38.0089C24.3873 39.3565 23.617 40.9769 23.2913 42.7116C22.9656 44.4462 23.0958 46.2357 23.6692 47.9049C23.7319 48.0887 23.7773 48.1946 23.7773 48.2076C23.8443 48.3718 23.87 48.5499 23.8519 48.7263C23.8338 48.9028 23.7726 49.072 23.6737 49.2192C23.5748 49.3664 23.4412 49.487 23.2847 49.5704C23.1282 49.6538 22.9536 49.6974 22.7762 49.6973H22.7795Z" fill="#C09F87"/>
<path d="M56.454 28.0001C55.6408 27.9998 54.8609 27.6767 54.2856 27.1019C53.7104 26.527 53.3868 25.7474 53.3859 24.9341L53.507 20.119C53.4991 19.5464 53.6555 18.9837 53.9578 18.4974C54.2263 18.0583 54.6008 17.6938 55.0471 17.4374C55.4933 17.1811 55.9968 17.0411 56.5113 17.0303C57.3241 17.0169 58.1097 17.3228 58.6994 17.8822C58.9916 18.16 59.2257 18.493 59.3883 18.8619C59.5508 19.2308 59.6386 19.6283 59.6465 20.0314L59.5243 24.9579C59.5165 25.7599 59.1956 26.5271 58.6301 27.0959C58.0646 27.6646 57.2992 27.9899 56.4973 28.0022H56.454V28.0001ZM56.5784 19.1903H56.5578C56.4057 19.1938 56.2568 19.2351 56.1246 19.3106C55.9925 19.3861 55.8813 19.4934 55.8011 19.6228C55.7109 19.7702 55.6659 19.9408 55.6713 20.1136L55.5502 24.9557C55.5556 25.1891 55.6527 25.4109 55.8205 25.573C55.9901 25.7404 56.219 25.8341 56.4573 25.8336H56.4681C56.7065 25.8293 56.9338 25.7319 57.1013 25.5622C57.2688 25.3925 57.3632 25.1639 57.3643 24.9255L57.4865 20.0206C57.4699 19.798 57.3699 19.5899 57.2065 19.4379C57.0368 19.2779 56.8115 19.1903 56.5784 19.1936V19.1903Z" fill="#C09F87"/>
<path d="M56.5406 19.1934C56.2538 19.1934 55.9789 19.0795 55.7761 18.8768C55.5734 18.6741 55.4595 18.3991 55.4595 18.1124V16.6259C55.4595 16.3392 55.5734 16.0642 55.7761 15.8614C55.9789 15.6587 56.2538 15.5448 56.5406 15.5448C56.8273 15.5448 57.1023 15.6587 57.305 15.8614C57.5077 16.0642 57.6216 16.3392 57.6216 16.6259V18.1124C57.6216 18.3991 57.5077 18.6741 57.305 18.8768C57.1023 19.0795 56.8273 19.1934 56.5406 19.1934Z" fill="#C09F87"/>
</svg>
